REM DIRINDEX 1\2\6,1\2\7,1\2\8,1\3\9,1\3\10,1\3\11,1\4\12,1\4\13,1\4\14,1\5\15,1\5\16,1\5\17,1\5\18
REM DIRNAME folder01,folder02,folder03,folder04,folder05,folder06,folder07,folder08,folder09,folder10,folder11,folder12,folder13,folder14,folder15,folder16,folder17,folder18
TITLE ""
FILE "2Q_t_0248-0265.mp3" MP3
  TRACK 01 AUDIO
    TITLE "13:cjc019_2552"
    INDEX 01 00:00:00
  TRACK 02 AUDIO
    TITLE "0:"
    INDEX 01 00:01:09
  TRACK 03 AUDIO
    TITLE "14:cjc019_2553"
    INDEX 01 00:01:62
  TRACK 04 AUDIO
    TITLE "0:"
    INDEX 01 00:04:03
  TRACK 05 AUDIO
    TITLE "13:cjc019_2554"
    INDEX 01 00:04:56
  TRACK 06 AUDIO
    TITLE "0:"
    INDEX 01 00:05:59
  TRACK 07 AUDIO
    TITLE "14:cjc019_2555"
    INDEX 01 00:06:39
  TRACK 08 AUDIO
    TITLE "0:"
    INDEX 01 00:07:47
  TRACK 09 AUDIO
    TITLE "13:cjc019_2556"
    INDEX 01 00:08:23
  TRACK 10 AUDIO
    TITLE "0:"
    INDEX 01 00:09:32
  TRACK 11 AUDIO
    TITLE "14:cjc019_2557"
    INDEX 01 00:10:08
  TRACK 12 AUDIO
    TITLE "0:"
    INDEX 01 00:11:15
  TRACK 13 AUDIO
    TITLE "13:cjc019_2558"
    INDEX 01 00:11:70
  TRACK 14 AUDIO
    TITLE "0:"
    INDEX 01 00:13:26
  TRACK 15 AUDIO
    TITLE "14:cjc019_2559"
    INDEX 01 00:14:09
  TRACK 16 AUDIO
    TITLE "0:"
    INDEX 01 00:16:36
  TRACK 17 AUDIO
    TITLE "13:cjc019_2560"
    INDEX 01 00:17:14
  TRACK 18 AUDIO
    TITLE "0:"
    INDEX 01 00:18:33
  TRACK 19 AUDIO
    TITLE "14:cjc019_2561"
    INDEX 01 00:19:13
  TRACK 20 AUDIO
    TITLE "0:"
    INDEX 01 00:21:27
  TRACK 21 AUDIO
    TITLE "13:cjc019_2562"
    INDEX 01 00:22:07
  TRACK 22 AUDIO
    TITLE "0:"
    INDEX 01 00:23:30
  TRACK 23 AUDIO
    TITLE "14:cjc019_2563"
    INDEX 01 00:24:14
  TRACK 24 AUDIO
    TITLE "0:"
    INDEX 01 00:25:07
  TRACK 25 AUDIO
    TITLE "13:cjc019_2564"
    INDEX 01 00:25:58
  TRACK 26 AUDIO
    TITLE "0:"
    INDEX 01 00:26:66
  TRACK 27 AUDIO
    TITLE "14:cjc019_2565"
    INDEX 01 00:27:49
  TRACK 28 AUDIO
    TITLE "0:"
    INDEX 01 00:30:38
  TRACK 29 AUDIO
    TITLE "13:cjc019_2566"
    INDEX 01 00:31:22
  TRACK 30 AUDIO
    TITLE "0:"
    INDEX 01 00:32:50
  TRACK 31 AUDIO
    TITLE "14:cjc019_2567"
    INDEX 01 00:33:28
  TRACK 32 AUDIO
    TITLE "0:"
    INDEX 01 00:34:47
  TRACK 33 AUDIO
    TITLE "13:cjc019_2568"
    INDEX 01 00:35:27
  TRACK 34 AUDIO
    TITLE "0:"
    INDEX 01 00:36:40
  TRACK 35 AUDIO
    TITLE "14:cjc019_2569"
    INDEX 01 00:37:22
  TRACK 36 AUDIO
    TITLE "0:"
    INDEX 01 00:39:03
  TRACK 37 AUDIO
    TITLE "13:cjc019_2570"
    INDEX 01 00:39:60
  TRACK 38 AUDIO
    TITLE "0:"
    INDEX 01 00:41:06
  TRACK 39 AUDIO
    TITLE "14:cjc019_2571"
    INDEX 01 00:41:63
  TRACK 40 AUDIO
    TITLE "0:"
    INDEX 01 00:44:26
  TRACK 41 AUDIO
    TITLE "13:cjc019_2572"
    INDEX 01 00:45:04
  TRACK 42 AUDIO
    TITLE "0:"
    INDEX 01 00:46:21
  TRACK 43 AUDIO
    TITLE "14:cjc019_2573"
    INDEX 01 00:47:05
  TRACK 44 AUDIO
    TITLE "0:"
    INDEX 01 00:48:18
  TRACK 45 AUDIO
    TITLE "13:cjc019_2574"
    INDEX 01 00:49:02
  TRACK 46 AUDIO
    TITLE "0:"
    INDEX 01 00:49:65
  TRACK 47 AUDIO
    TITLE "14:cjc019_2575"
    INDEX 01 00:50:58
  TRACK 48 AUDIO
    TITLE "0:"
    INDEX 01 00:53:60
  TRACK 49 AUDIO
    TITLE "13:cjc019_2576"
    INDEX 01 00:54:34
  TRACK 50 AUDIO
    TITLE "0:"
    INDEX 01 00:55:71
  TRACK 51 AUDIO
    TITLE "14:cjc019_2577"
    INDEX 01 00:56:61
  TRACK 52 AUDIO
    TITLE "0:"
    INDEX 01 00:58:03
  TRACK 53 AUDIO
    TITLE "13:cjc019_2578"
    INDEX 01 00:58:56
  TRACK 54 AUDIO
    TITLE "0:"
    INDEX 01 00:59:63
  TRACK 55 AUDIO
    TITLE "14:cjc019_2579"
    INDEX 01 01:00:51
  TRACK 56 AUDIO
    TITLE "0:"
    INDEX 01 01:03:63
  TRACK 57 AUDIO
    TITLE "13:cjc019_2580"
    INDEX 01 01:04:43
  TRACK 58 AUDIO
    TITLE "0:"
    INDEX 01 01:06:00
  TRACK 59 AUDIO
    TITLE "14:cjc019_2581"
    INDEX 01 01:06:57
  TRACK 60 AUDIO
    TITLE "0:"
    INDEX 01 01:08:01
  TRACK 61 AUDIO
    TITLE "13:cjc019_2582"
    INDEX 01 01:08:54
  TRACK 62 AUDIO
    TITLE "0:"
    INDEX 01 01:10:33
  TRACK 63 AUDIO
    TITLE "14:cjc019_2583"
    INDEX 01 01:11:15
  TRACK 64 AUDIO
    TITLE "0:"
    INDEX 01 01:12:34
  TRACK 65 AUDIO
    TITLE "13:cjc019_2584"
    INDEX 01 01:13:12
  TRACK 66 AUDIO
    TITLE "0:"
    INDEX 01 01:14:23
  TRACK 67 AUDIO
    TITLE "14:cjc019_2585"
    INDEX 01 01:15:07
  TRACK 68 AUDIO
    TITLE "0:"
    INDEX 01 01:17:26
  TRACK 69 AUDIO
    TITLE "13:cjc019_2586"
    INDEX 01 01:18:11
  TRACK 70 AUDIO
    TITLE "0:"
    INDEX 01 01:19:40
  TRACK 71 AUDIO
    TITLE "14:cjc019_2587"
    INDEX 01 01:20:22
  TRACK 72 AUDIO
    TITLE "0:"
    INDEX 01 01:23:09
